<?xml version="1.0" encoding="UTF-8"?>
<svg xmlns="http://www.w3.org/2000/svg" xmlns:xlink="http://www.w3.org/1999/xlink" id="eP7Ab0tMNz11" viewBox="0 0 125 60" shape-rendering="geometricPrecision" text-rendering="geometricPrecision" style="background-color:#000">
  <style><![CDATA[
#eP7Ab0tMNz12_tr {animation: eP7Ab0tMNz12_tr__tr 4000ms linear infinite normal forwards}@keyframes eP7Ab0tMNz12_tr__tr { 0% {transform: translate(21.482662px,30px) rotate(0deg);animation-timing-function: cubic-bezier(0.645,0.045,0.355,1)} 75% {transform: translate(21.482662px,30px) rotate(720deg)} 100% {transform: translate(21.482662px,30px) rotate(720deg)}} #eP7Ab0tMNz18 {animation: eP7Ab0tMNz18_c_o 4000ms linear infinite normal forwards}@keyframes eP7Ab0tMNz18_c_o { 0% {opacity: 1} 77.5% {opacity: 1} 82.5% {opacity: 0} 87.5% {opacity: 1} 92.5% {opacity: 0} 97.5% {opacity: 1} 100% {opacity: 1}} #eP7Ab0tMNz115 {animation: eP7Ab0tMNz115_c_o 4000ms linear infinite normal forwards}@keyframes eP7Ab0tMNz115_c_o { 0% {opacity: 1} 75% {opacity: 1} 80% {opacity: 0} 85% {opacity: 1} 90% {opacity: 0} 95% {opacity: 1} 100% {opacity: 1}}
]]></style>
  <defs>
    <linearGradient id="eP7Ab0tMNz13-fill" x1="23.6749" y1="1.40158" x2="13.4496" y2="56.3113" spreadMethod="pad" gradientUnits="userSpaceOnUse" gradientTransform="translate(0 0)">
      <stop id="eP7Ab0tMNz13-fill-0" offset="4.29656%" stop-color="#ffe601"></stop>
      <stop id="eP7Ab0tMNz13-fill-1" offset="52.5016%" stop-color="#ff0b16"></stop>
      <stop id="eP7Ab0tMNz13-fill-2" offset="98.5%" stop-color="#ad00ff"></stop>
    </linearGradient>
    <linearGradient id="eP7Ab0tMNz14-fill" x1="23.6749" y1="1.40158" x2="13.4496" y2="56.3113" spreadMethod="pad" gradientUnits="userSpaceOnUse" gradientTransform="translate(0 0)">
      <stop id="eP7Ab0tMNz14-fill-0" offset="4.29656%" stop-color="#ffe601"></stop>
      <stop id="eP7Ab0tMNz14-fill-1" offset="52.5016%" stop-color="#ff0b16"></stop>
      <stop id="eP7Ab0tMNz14-fill-2" offset="98.5%" stop-color="#ad00ff"></stop>
    </linearGradient>
  </defs>
  <g id="eP7Ab0tMNz12_tr" transform="translate(21.482662,30) rotate(0)">
    <g transform="scale(0.852242,0.852242) translate(-15.186401,-16.01433)">
      <path d="M12.6879,17.4108L9.03552,15.3583L21.5786,2.24054c-1.1194-.51947-2.31-.91022-3.5581-1.14467v1.69402c0,.50798-.4115.91941-.9194.91941h-3.8616c-.5079,0-.9194-.41143-.9194-.91941v-1.68712c-3.42939.65508-6.44965,2.46402-8.64015,5.0085l1.46186.84356c.43902.25284.59072.81598.33559,1.25499L3.54663,11.5542c-.25284.439-.81598.5907-1.255.3356l-1.457263-.8413C0.29651,12.6046,0,14.2733,0,16.0133s.303406,3.4547.857352,5.0292L2.29163,20.215c.43902-.2528,1.00216-.1034,1.255.3356L5.4774,23.895c.25284.439.10343,1.0022-.33559,1.255l-1.41589.8183c.86424.9952,1.85721,1.8733,2.95131,2.6157v3.4202L12.6902,17.4108h-.0023Z" fill="url(#eP7Ab0tMNz13-fill)"></path>
      <path d="M29.5407,11.0554l-1.4481.8367c-.439.2528-1.0021.1034-1.255-.3356L24.9069,8.21212c-.2529-.43902-.1035-1.00216.3356-1.25499l1.4549-.83897c-.8757-1.01825-1.8848-1.91467-2.9996-2.67089v-3.424809L17.786,14.2756l3.6386,2.0457L8.76889,29.7769c1.11709.5218,2.30541.9125,3.54891,1.1493v-1.6228c0-.5079.4115-.9194.9194-.9194h3.8616c.5079,0,.9194.4115.9194.9194v1.6297c3.3995-.6413,6.4703-2.4364,8.6723-4.9395l-.4827-.2828-.9676-.5585c-.4391-.2528-.5908-.816-.3356-1.255l1.9307-3.3444c.2529-.439.816-.5907,1.255-.3356l1.4274.8229c.5517-1.5745.8551-3.2639.8551-5.0246c0-1.7606-.2942-3.4041-.8321-4.9602Z" fill="url(#eP7Ab0tMNz14-fill)"></path>
      <path d="M9.68324,24.704l3.00416-7.2933-3.65235-2.0525L17.7833,6.21c-.7953-.19767-1.6274-.3057-2.4848-.3057-5.65434,0-10.23991,4.5833-10.23991,10.2399c0,3.5812,1.83883,6.7301,4.62465,8.5598Z" fill="#ffc701"></path>
      <path d="M20.6357,7.40524L17.7856,14.2755l3.6385,2.0457-9.0608,9.6332c.9286.2781,1.9124.4275,2.9329.4275c5.6544,0,10.24-4.5833,10.24-10.24c0-3.6983-1.9606-6.93921-4.9005-8.73896v.0023Z" fill="#ffc701"></path>
      <path d="M12.6868,17.4105L9.03442,15.3579L21.5775,2.24023L6.73589,15.3579l3.65241,2.0526L6.67383,32.0062L12.6868,17.4105Z" fill="#190048" fill-opacity="0.2"></path>
    </g>
  </g>
  <g id="eP7Ab0tMNz18" transform="matrix(.94466 0 0 0.94466-68.570584 22.882961)">
    <path d="M187.888,15.4779c.039-.6573-.017-1.3005-.17-1.9294-.204-.8564-.556-1.6233-1.055-2.3008-.498-.6774-1.182-1.2206-2.052-1.62965-.869-.4218-1.854-.6327-2.953-.6327-2.123,0-3.913.67105-5.371,2.01315-1.444,1.3293-2.32,2.9206-2.627,4.774-.029.1843-.052.3674-.068.5493-.007.0845-.013.1688-.017.2528h.559c-.046.9137.084,1.7968.391,2.6491.409,1.0865,1.132,1.994,2.168,2.7225c1.035.7158,2.282,1.0737,3.739,1.0737c2.148,0,3.932-.6774,5.351-2.0323c1.297-1.2264,2.127-2.6622,2.491-4.3074l2.105-.5051-2.491-.6972Zm-7.299.897l3.671.6327c-.235.5031-.578.9478-1.027,1.3341-.729.6136-1.567.9203-2.513.9203s-1.675-.3067-2.186-.9203c-.452-.5535-.639-1.2268-.562-2.0199.005-.0484.01-.0973.017-.1467h-.559c.008-.0569.017-.1144.027-.1725.167-.9331.614-1.7064,1.343-2.3199.729-.6263,1.566-.9395,2.512-.9395.947,0,1.675.3132,2.187.9395.492.5909.671,1.33.535,2.2173l-3.445.4749Z" clip-rule="evenodd" fill="#fff" fill-rule="evenodd"></path>
    <path d="M168.489,22.7138l-2.943-6.1392h-.198l-1.079,6.1392h-3.836l1.08-6.1392h-.559l1.28-7.28187h3.069l3.087,6.44207l1.132-6.44207h3.836l-1.21,6.88237h.559l-1.15,6.5387h-3.068Z" fill="#fff"></path>
    <path d="M160.32,9.29273l-1.21,6.88237h.559l-1.15,6.5387h-3.836l1.08-6.1392h-.559l1.28-7.28187h3.836Z" fill="#fff"></path>
    <path d="M147.858,17.3831c-.639-.2233-1.179-.4928-1.619-.8085h-.559c-.113-.0812-.22-.1655-.32-.2528-.96-.836-1.317-1.9522-1.071-3.3485.217-1.2015.805-2.1665,1.764-2.8951s2.129-1.09285,3.51-1.09285c1.151,0,2.135.26842,2.954.80526.818.53679,1.438,1.31009,1.86,2.31989l-3.241,1.7256c-.333-.8692-.94-1.3038-1.822-1.3038-.665,0-1.049.2301-1.151.6902-.051.2812.064.5113.345.6903.281.1789.857.4154,1.726.7094.55.1789,1.004.3642,1.362.556.371.1789.742.4345,1.112.7669.084.0721.161.1488.232.23h.559c.041.0474.081.0963.118.1467.194.2613.333.564.417.9079.141.5241.153,1.1376.038,1.8406-.23,1.3038-.837,2.288-1.822,2.9526-.971.6647-2.237.997-3.797.997-1.458,0-2.634-.294-3.529-.8819-.882-.6008-1.483-1.4316-1.803-2.4925l3.318-1.7064c.409,1.0226,1.189,1.5338,2.34,1.5338.908,0,1.406-.2364,1.496-.7094.025-.1533,0-.2875-.077-.4026s-.211-.2173-.403-.3067c-.191-.0895-.37-.1662-.537-.2301-.166-.0639-.402-.1406-.709-.2301-.294-.0895-.524-.1598-.691-.2109Z" fill="#fff"></path>
    <path d="M140.479,9.29273l.984,6.88237h.558l.934,6.5387h-4.008l-.153-1.7256h-3.875l-.767,1.7256h-4.238l3.035-6.1392h-.558l3.6-7.28187h4.488Zm-2.098,7.28187h-.559l-.258-2.7763-1.062,2.3768h.559l-.78,1.7455h2.225l-.125-1.346Z" clip-rule="evenodd" fill="#fff" fill-rule="evenodd"></path>
    <path d="M117.816,15.6398l-3.554.7351l3.972.6845c-.021,1.5233.419,2.8263,1.32,3.909c1.151,1.3677,2.768,2.0515,4.852,2.0515c1.292,0,2.474-.2812,3.548-.8436c1.087-.5752,1.976-1.374,2.666-2.3966l-3.184-2.0131c-.767.9969-1.681,1.4954-2.742,1.4954-.921,0-1.611-.3131-2.072-.9394-.405-.5628-.572-1.2298-.501-2.0008.004-.0485.009-.0974.016-.1467h-.559c.007-.0569.016-.1144.026-.1725.166-.9459.601-1.7256,1.304-2.3391s1.515-.9203,2.436-.9203c1.138,0,1.969.4666,2.493,1.3996l3.51-1.8597c-1.138-2.1985-3.024-3.29775-5.658-3.29775-1.969,0-3.702.63909-5.198,1.91725-1.44,1.2415-2.332,2.8205-2.675,4.7372Z" fill="#fff"></path>
  </g>
  <g id="eP7Ab0tMNz115" transform="matrix(.94466 0 0 0.94466 7.334483 7.882961)">
    <path d="M66.3655,15.9451c.0833.0721.1606.1488.2319.23h.5587c.0416.0474.081.0963.1185.1467.194.2613.3327.564.4166.9079.1406.5241.1534,1.1376.0384,1.8406-.2302,1.3038-.8375,2.288-1.822,2.9526-.9718.6647-2.2376.997-3.7975.997-1.4576,0-2.6339-.294-3.5289-.8819-.8822-.6008-1.4832-1.4316-1.8028-2.4925l3.3179-1.7064c.4092,1.0226,1.1891,1.5338,2.3399,1.5338.9078,0,1.4064-.2364,1.4959-.7094.0256-.1533,0-.2875-.0767-.4026s-.211-.2173-.4027-.3067c-.1918-.0895-.3708-.1662-.5371-.2301-.1662-.0639-.4027-.1406-.7096-.2301-.2941-.0895-.5242-.1598-.6904-.2109-.6393-.2233-1.179-.4928-1.6196-.8085h-.5587c-.1134-.0812-.2201-.1655-.3203-.2528-.9595-.836-1.3165-1.9522-1.071-3.3485.2173-1.2015.8055-2.1665,1.7644-2.8951.959-.72857,2.1289-1.09285,3.5098-1.09285c1.1507,0,2.1353.26842,2.9536.80526s1.4384,1.31009,1.8603,2.31989l-3.2412,1.7256c-.3325-.8692-.9398-1.3038-1.822-1.3038-.6649,0-1.0485.2301-1.1508.6902-.0511.2812.064.5113.3452.6903.2813.1789.8567.4154,1.7262.7094.5498.1789,1.0037.3642,1.3617.556.3708.1789.7415.4345,1.1123.7669Z" fill="#fff"></path>
    <path d="M57.1789,9.29273L55.9692,16.1751h.5588l-1.1496,6.5387h-3.0686l-2.9424-6.1392h-.1984l-1.0786,6.1392h-3.8358l1.0793-6.1392h-.5587l1.2799-7.28187h3.0687l3.0878,6.44207l1.1315-6.44207h3.8358Z" fill="#fff"></path>
    <path d="M36.3477,16.3749l2.78-.3834l1.1775-6.69877h3.8358L42.9312,16.1751h.5588l-1.1495,6.5387h-3.8358l1.0182-5.7917-3.1752-.5472Z" fill="#fff"></path>
    <path d="M110.615,13.0122l-.556,3.1629h.558l-1.15,6.5387h-3.836l1.08-6.1392h-.559l.627-3.5624h-3.164l.652-3.71947h10.165l-.652,3.71947h-3.165Z" fill="#fff"></path>
    <path d="M98.2531,22.7138l-2.9423-6.1392h-.1984l-1.0786,6.1392h-3.8358l1.0793-6.1392h-.5588l1.28-7.28187h3.0686l3.0878,6.44207l1.1316-6.44207h3.8355l-1.209,6.88237h.558l-1.149,6.5387h-3.0689Z" fill="#fff"></path>
    <path d="M86.9503,9.29273l.9835,6.88237h.5588l.9341,6.5387h-4.0084l-.1535-1.7256h-3.8741l-.7672,1.7256h-4.2385l3.0357-6.1392h-.5588l3.6005-7.28187h4.4879ZM84.8521,16.5746h-.5587l-.2583-2.7763-1.0617,2.3768h.5588l-.7798,1.7455h2.2248l-.1251-1.346Z" clip-rule="evenodd" fill="#fff" fill-rule="evenodd"></path>
    <path d="M70.3446,22.7138l1.0804-6.1392h-.5588l.6268-3.5624h-3.1645l.652-3.71947h10.1649l-.6521,3.71947h-3.1645l-.5565,3.1629h.5587l-1.1506,6.5387h-3.8358Z" fill="#fff"></path>
  </g>
</svg>
