<svg width="21" height="21" viewBox="0 0 21 21" fill="none" xmlns="http://www.w3.org/2000/svg">
<g id="poker (1) 1" clip-path="url(#clip0_1_132787)">
<g id="Group">
<path id="Vector" d="M13.9896 15.3996L10.5237 11.6106C10.4077 11.484 10.2498 11.4204 10.0916 11.42C9.92992 11.42 9.76821 11.486 9.65141 11.6188L6.31709 15.4078C6.12217 15.6293 6.12217 15.9605 6.31709 16.182L9.65141 19.971C9.76782 20.1034 9.92953 20.1698 10.0916 20.1698C10.2495 20.1698 10.4073 20.1065 10.5237 19.9792L13.9896 16.1902C14.1947 15.9664 14.1947 15.6234 13.9896 15.3996Z" fill="#C0180C"/>
<path id="Vector_2" d="M11.849 0.170134C11.1561 0.170134 10.5518 0.474426 10.0916 1.05254L10.0912 1.05293C9.6311 0.474426 9.02642 0.170134 8.33346 0.170134C6.97567 0.170134 5.98975 1.30332 5.98975 2.6826C5.98975 4.4314 7.60535 5.51185 9.70531 7.34932C9.81586 7.44619 9.95375 7.49424 10.0916 7.49424C10.2291 7.49424 10.3666 7.4458 10.4772 7.34932C12.5771 5.51146 14.1927 4.43101 14.1927 2.6826C14.1927 1.30332 13.2064 0.170134 11.849 0.170134Z" fill="#C0180C"/>
<path id="Vector_3" d="M10.4772 7.34932C10.3667 7.4458 10.2292 7.49424 10.0917 7.49424V1.05254C10.5518 0.474426 11.1561 0.170134 11.8491 0.170134C13.2065 0.170134 14.1928 1.30332 14.1928 2.6826C14.1928 4.43101 12.5772 5.51146 10.4772 7.34932Z" fill="#C0180C"/>
<path id="Vector_4" d="M13.9897 15.3996C14.1947 15.6234 14.1947 15.9664 13.9897 16.1902L10.5237 19.9792C10.4073 20.1065 10.2495 20.1698 10.0917 20.1698V11.42C10.2499 11.4204 10.4077 11.484 10.5237 11.6106L13.9897 15.3996Z" fill="#C0180C"/>
<path id="Vector_5" d="M6.53547 7.43135C6.58157 6.12942 5.52729 5.01381 4.19293 5.01381C2.85858 5.01381 1.8043 6.12942 1.85039 7.43135C0.840247 7.69189 0.0914307 8.61063 0.0914307 9.70124C0.0914307 10.9934 1.14298 12.045 2.43514 12.045C2.8617 12.045 3.26209 11.9297 3.607 11.7297V13.2168H3.02107C2.69764 13.2168 2.43514 13.4793 2.43514 13.8027C2.43514 14.1262 2.69764 14.3887 3.02107 14.3887H5.36479C5.68822 14.3887 5.95072 14.1262 5.95072 13.8027C5.95072 13.4793 5.68822 13.2168 5.36479 13.2168H4.77886V11.7297C5.12378 11.9297 5.52416 12.045 5.95072 12.045C7.24288 12.045 8.29443 10.9934 8.29443 9.70124C8.29443 8.61063 7.54561 7.69189 6.53547 7.43135Z" fill="#7A0AEA"/>
<path id="Vector_6" d="M8.29437 9.70124C8.29437 10.9934 7.24282 12.045 5.95066 12.045C5.5241 12.045 5.12372 11.9297 4.7788 11.7297V13.2168H5.36473C5.68816 13.2168 5.95066 13.4793 5.95066 13.8027C5.95066 14.1262 5.68816 14.3887 5.36473 14.3887H4.19287V5.01381C5.52723 5.01381 6.58151 6.12942 6.53541 7.43135C7.54555 7.69189 8.29437 8.61063 8.29437 9.70124Z" fill="#7A0AEA"/>
<path id="Vector_7" d="M16.3756 5.01225C16.2651 4.91537 16.1272 4.86733 15.9897 4.86733C15.8522 4.86733 15.7143 4.91537 15.6038 5.01225C13.5038 6.85011 11.8882 7.93056 11.8882 9.67897C11.8882 11.0582 12.8745 12.1914 14.2319 12.1914C14.6608 12.1914 15.0557 12.0746 15.4038 11.8485V13.2168H14.8178C14.4944 13.2168 14.2319 13.4793 14.2319 13.8027C14.2319 14.1262 14.4944 14.3887 14.8178 14.3887H17.1615C17.485 14.3887 17.7475 14.1262 17.7475 13.8027C17.7475 13.4793 17.485 13.2168 17.1615 13.2168H16.5756V11.8485C16.9237 12.0746 17.3186 12.1914 17.7475 12.1914C19.1053 12.1914 20.0912 11.0582 20.0912 9.67897C20.0912 7.93017 18.4756 6.84972 16.3756 5.01225Z" fill="#7A0AEA"/>
<path id="Vector_8" d="M20.0911 9.67897C20.0911 11.0582 19.1052 12.1914 17.7474 12.1914C17.3185 12.1914 16.9236 12.0746 16.5756 11.8485V13.2168H17.1615C17.4849 13.2168 17.7474 13.4793 17.7474 13.8027C17.7474 14.1262 17.4849 14.3887 17.1615 14.3887H15.9896V4.86733C16.1271 4.86733 16.265 4.91537 16.3756 5.01225C18.4755 6.84972 20.0911 7.93017 20.0911 9.67897Z" fill="#7A0AEA"/>
</g>
</g>
<defs>
<clipPath id="clip0_1_132787">
<rect width="19.9997" height="19.9997" fill="white" transform="translate(0.0914307 0.170134)"/>
</clipPath>
</defs>
</svg>
