<?xml version="1.0" encoding="UTF-8"?>
<svg xmlns="http://www.w3.org/2000/svg" width="18" height="20" viewBox="0 0 18 20" fill="none">
  <g id="Layer 2">
    <rect id="Rectangle 7" x="6.17444" y="12.8497" width="5.22492" height="2.37496" fill="white"></rect>
    <path id="Vector" d="M12.8923 14.7496H4.74958C4.00006 14.7496 3.39246 15.3572 3.39246 16.1068V18.1424C3.39246 18.892 4.00006 19.4996 4.74958 19.4996H12.8923C13.6418 19.4996 14.2494 18.892 14.2494 18.1424V16.1068C14.2494 15.3572 13.6418 14.7496 12.8923 14.7496Z" fill="#7A0AEA"></path>
    <path id="Vector_2" d="M16.285 1.857H14.9279C14.9268 1.4974 14.7835 1.15283 14.5292 0.898556C14.2749 0.644279 13.9303 0.500952 13.5707 0.499878H4.07088C3.71128 0.500952 3.36671 0.644279 3.11243 0.898556C2.85816 1.15283 2.71483 1.4974 2.71376 1.857H1.35663C0.996703 1.857 0.651513 1.99998 0.397004 2.25449C0.142494 2.509 -0.000488281 2.85419 -0.000488281 3.21412V6.41761C0.00164862 7.20122 0.274265 7.96006 0.771284 8.56588C1.2683 9.1717 1.95924 9.58734 2.72733 9.74256L3.7126 9.93934C4.30692 10.8496 5.13332 11.5849 6.10656 12.0693V13.3925H11.5351V12.0693C12.508 11.5855 13.3344 10.8509 13.929 9.94138L14.9143 9.74459C15.6824 9.58937 16.3733 9.17373 16.8703 8.56791C17.3673 7.96209 17.64 7.20325 17.6421 6.41964V3.21412C17.6421 2.85419 17.4991 2.509 17.2446 2.25449C16.9901 1.99998 16.6449 1.857 16.285 1.857ZM1.35663 6.41761V3.21412H2.71376V6.60693C2.71529 7.21981 2.80908 7.82897 2.99197 8.41394C2.53121 8.32034 2.11687 8.0706 1.81893 7.70688C1.52098 7.34317 1.35769 6.88777 1.35663 6.41761ZM16.285 6.41761C16.2839 6.88777 16.1206 7.34317 15.8227 7.70688C15.5247 8.0706 15.1104 8.32034 14.6496 8.41394C14.8325 7.82897 14.9263 7.21981 14.9279 6.60693V3.21412H16.285V6.41761Z" fill="#C0180C"></path>
  </g>
</svg>
