<?xml version="1.0" encoding="UTF-8"?>
<svg xmlns="http://www.w3.org/2000/svg" width="20" height="21" viewBox="0 0 20 21" fill="none">
  <g id="Layer 2">
    <path id="Vector" d="M18.4615 1.41513H8.9166C8.08542 1.41513 7.41162 2.08893 7.41162 2.92011V18.4949C7.41162 19.326 8.08542 19.9998 8.9166 19.9998H18.4615C19.2926 19.9998 19.9664 19.326 19.9664 18.4949V2.92011C19.9664 2.08893 19.2926 1.41513 18.4615 1.41513Z" fill="#7A0AEA"></path>
    <path id="Vector_2" d="M15.6863 15.67L11.7864 1.11518C11.5714 0.310189 10.7464 -0.164804 9.94143 0.0501926L1.20656 2.39016C0.406571 2.61015 -0.0734218 3.43514 0.141575 4.23513L4.04152 18.7949C4.25651 19.5999 5.0815 20.0749 5.88649 19.8599L14.6214 17.5199C15.4263 17.3049 15.9013 16.4799 15.6863 15.675V15.67Z" fill="#C0180C"></path>
    <path id="Vector (Stroke)" fill-rule="evenodd" clip-rule="evenodd" d="M10.3905 0.235849C11.4237 -0.0376095 12.4851 0.566856 12.7616 1.59289L16.5416 15.5724V15.5818C16.7751 16.5847 16.1694 17.598 15.1562 17.8663M15.1562 17.8663L6.72669 20.1041C5.69348 20.3776 4.63173 19.7732 4.3552 18.7471L0.5918 4.82405C0.591789 4.82401 0.591812 4.82409 0.5918 4.82405M10.6398 1.1597L2.21347 3.3966C2.21301 3.39673 2.21254 3.39686 2.21208 3.39698C1.69273 3.53931 1.38636 4.06925 1.52375 4.57585L5.28745 18.5C5.42586 19.0136 5.95672 19.3179 6.47713 19.1803C6.47706 19.1803 6.4772 19.1803 6.47713 19.1803L14.9065 16.9426C15.4248 16.8054 15.7319 16.2792 15.5929 15.7635L15.5766 15.7028V15.6983L11.8294 1.84003C11.691 1.32653 11.1601 1.02218 10.6398 1.1597Z" fill="white"></path>
    <path id="Vector_3" d="M15.6863 15.67L11.7864 1.11522C11.5714 0.310234 10.7464 -0.164758 9.94143 0.0502384L1.20656 2.3902C0.406571 2.6102 -0.0734218 3.43519 0.141575 4.23517L4.04152 18.795C4.25651 19.5999 5.0815 20.0749 5.88649 19.8599L14.6214 17.52C15.4263 17.305 15.9013 16.48 15.6863 15.675V15.67Z" fill="#C0180C"></path>
    <path id="Vector_4" d="M11.1816 8.37003C9.9416 7.56004 8.75161 6.68005 7.61663 5.72507C7.19664 5.36507 6.56665 5.41007 6.20665 5.83006C6.12665 5.92006 6.06665 6.02506 6.02665 6.13506C5.58166 7.32004 4.73667 9.32501 4.26168 10.23C4.02169 10.7 4.18168 11.27 4.63168 11.545C4.91667 11.72 5.18667 11.915 5.50166 12.15C5.74166 12.325 5.99666 12.515 6.28665 12.705C6.94664 13.15 7.58163 13.6399 8.17662 14.1699C8.36162 14.3299 8.59662 14.4199 8.84161 14.4199C8.92661 14.4199 9.01661 14.4099 9.10161 14.3849C9.4266 14.2999 9.6866 14.0499 9.7916 13.7299C10.0466 12.975 10.3466 12.235 10.6966 11.515C10.8466 11.205 10.9766 10.91 11.0966 10.64C11.2466 10.305 11.3816 9.985 11.5416 9.70001C11.7966 9.23001 11.6366 8.64502 11.1816 8.37003Z" fill="white"></path>
  </g>
</svg>
