<svg xmlns="http://www.w3.org/2000/svg" width="359.5584" height="234.8728" viewBox="0 0 359.5584 234.8728"><defs><style>.a,.b{fill-rule:evenodd;}.b{fill:#ff4930;}.c{fill:none;}</style></defs><path class="a" d="M85.8047,158.27l11.38-81.6668H82.501L71.4882,158.27Z"/><path class="a" d="M153.9252,158.27,166.9307,76.603H150.15L137.5637,158.27Z"/><path class="a" d="M78.83,76.603H36.8769L34.7792,91.9415H47.3651L36.8769,158.27H53.6581L63.7267,91.9415h12.586Z"/><path class="b" d="M207.311,76.603H169.2387l-2.3075,15.3385h11.5373l-9.23,66.3283H184.237l9.6142-66.3283h11.537Z"/><path class="a" d="M144.906,76.603h-17.52l-14.6,31.347,5.0057-31.347H102.357L89.8427,158.27h15.4345l3.337-20.623,4.1715-7.4243,4.1715,28.0473h15.8515l-8.343-45.37Z"/><path class="b" d="M288.0692,76.603h-16.615L257.93,107.95l5.0232-31.347h-14.297L236.6775,158.27h14.297l3.0912-20.623,3.8643-7.4243,4.25,28.0473H276.864l-7.7283-45.37Z"/><path class="b" d="M309.5592,158.27h15.22L318.1967,76.603H302.1542L277.0582,158.27h14.811l4.1125-15.261h13.165ZM300.0967,128.16l7.815-28.46.825,28.46Z"/><path class="b" d="M221.4564,158.27h15.2215L230.0957,76.603h-15.633L188.9564,158.27h14.81l4.1138-15.261H221.045ZM211.9945,128.16l7.8165-28.46.8227,28.46Z"/><path class="c" d="M359.5584,234.8728H0V0H359.5584Z"/></svg>